<?xml version="1.0" standalone="no"?><!DOCTYPE svg PUBLIC "-//W3C//DTD SVG 1.1//EN" "http://www.w3.org/Graphics/SVG/1.1/DTD/svg11.dtd"><svg t="1566655081529" class="icon" viewBox="0 0 1024 1024" version="1.1" xmlns="http://www.w3.org/2000/svg" p-id="2484" xmlns:xlink="http://www.w3.org/1999/xlink" width="200" height="200"><defs><style type="text/css"></style></defs><path d="M963.584 934.912L711.68 683.008C772.096 615.424 808.96 527.36 808.96 430.08 808.96 221.184 638.976 51.2 430.08 51.2S51.2 221.184 51.2 430.08s169.984 378.88 378.88 378.88c97.28 0 185.344-36.864 252.928-97.28l251.904 251.904c4.096 4.096 9.216 6.144 14.336 6.144s10.24-2.048 14.336-6.144c8.192-8.192 8.192-20.48 0-28.672zM430.08 768C243.712 768 92.16 616.448 92.16 430.08S243.712 92.16 430.08 92.16s337.92 151.552 337.92 337.92-151.552 337.92-337.92 337.92z" p-id="2485"></path></svg>