<?xml version="1.0" standalone="no"?><!DOCTYPE svg PUBLIC "-//W3C//DTD SVG 1.1//EN" "http://www.w3.org/Graphics/SVG/1.1/DTD/svg11.dtd"><svg t="1566655096357" class="icon" viewBox="0 0 1024 1024" version="1.1" xmlns="http://www.w3.org/2000/svg" p-id="2980" xmlns:xlink="http://www.w3.org/1999/xlink" width="200" height="200"><defs><style type="text/css"></style></defs><path d="M512 563.2c-89.6 0-166.4-76.8-166.4-166.4 0-89.6 76.8-166.4 166.4-166.4 89.6 0 166.4 76.8 166.4 166.4 0 89.6-76.8 166.4-166.4 166.4z m0-307.2c-76.8 0-140.8 64-140.8 140.8 0 76.8 64 140.8 140.8 140.8s140.8-64 140.8-140.8c0-76.8-64-140.8-140.8-140.8z" fill="" p-id="2981"></path><path d="M422.4 390.4c-6.4 0-12.8-6.4-12.8-12.8s0-12.8 6.4-25.6c0-6.4 6.4-12.8 19.2-12.8 6.4 0 12.8 6.4 12.8 19.2v12.8c-12.8 12.8-19.2 19.2-25.6 19.2zM512 499.2c-44.8 0-83.2-25.6-96-70.4 0-6.4 0-12.8 6.4-19.2 6.4 0 12.8 0 19.2 6.4 12.8 32 38.4 51.2 70.4 51.2 6.4 0 12.8 6.4 12.8 12.8 0 12.8-6.4 19.2-12.8 19.2z" fill="" p-id="2982"></path><path d="M582.4 723.2c-12.8 0-25.6-6.4-32-12.8l-19.2-12.8c-6.4-6.4-25.6-6.4-38.4 0l-19.2 12.8c-12.8 6.4-25.6 12.8-32 12.8-25.6 0-44.8-12.8-57.6-32l-12.8-19.2c-6.4-6.4-19.2-19.2-32-19.2h-25.6c-19.2 0-38.4-6.4-51.2-19.2-12.8-12.8-19.2-32-19.2-44.8v-19.2c0-12.8-6.4-25.6-19.2-32l-19.2-12.8c-12.8-6.4-25.6-25.6-32-38.4-6.4-19.2 0-38.4 6.4-51.2l12.8-19.2c6.4-6.4 6.4-25.6 0-38.4l-12.8-19.2c-12.8-12.8-12.8-32-6.4-51.2 6.4-19.2 19.2-32 32-38.4l19.2-12.8c6.4-6.4 19.2-19.2 19.2-32v-19.2c0-19.2 6.4-32 19.2-44.8 12.8-12.8 32-19.2 51.2-19.2h19.2c12.8 0 25.6-6.4 32-19.2l12.8-19.2c12.8-19.2 32-32 57.6-32 12.8 0 25.6 6.4 32 12.8l19.2 12.8c6.4 6.4 25.6 6.4 38.4 0l19.2-12.8c12.8-6.4 19.2-12.8 32-12.8 25.6 0 44.8 12.8 57.6 32l12.8 19.2c6.4 6.4 19.2 19.2 32 19.2h25.6c19.2 0 38.4 6.4 51.2 19.2 12.8 12.8 19.2 32 19.2 44.8v19.2c0 12.8 6.4 25.6 19.2 32l19.2 12.8c19.2 6.4 25.6 25.6 32 38.4 6.4 19.2 0 38.4-6.4 51.2l-12.8 19.2c-6.4 6.4-6.4 25.6 0 38.4l12.8 19.2c12.8 12.8 12.8 32 6.4 51.2-6.4 19.2-19.2 32-32 38.4l-19.2 12.8c-6.4 6.4-19.2 19.2-19.2 32v19.2c0 19.2-6.4 32-19.2 44.8-12.8 12.8-25.6 19.2-44.8 19.2h-19.2c-12.8 0-25.6 6.4-32 12.8l-12.8 19.2c-19.2 25.6-38.4 38.4-64 38.4z m-70.4-83.2c19.2 0 32 6.4 44.8 12.8l19.2 12.8h6.4s6.4 0 6.4-6.4l12.8-19.2c12.8-25.6 51.2-44.8 83.2-44.8h19.2c6.4 0 6.4 0 6.4-6.4v-25.6c0-32 19.2-70.4 44.8-83.2l19.2-12.8 6.4-6.4v-6.4l-12.8-19.2c-19.2-25.6-19.2-70.4 0-96l12.8-19.2v-6.4s0-6.4-6.4-6.4l-19.2-12.8c-32-12.8-51.2-51.2-44.8-83.2v-19.2-6.4h-32c-32 0-70.4-19.2-83.2-44.8l-12.8-19.2c0-6.4-6.4-6.4-6.4-6.4h-6.4l-19.2 12.8c-25.6 19.2-70.4 19.2-96 0l-19.2-12.8h-6.4s-6.4 0-6.4 6.4l-12.8 19.2c-12.8 32-51.2 51.2-83.2 51.2h-25.6v25.6c0 32-19.2 70.4-44.8 83.2l-19.2 12.8-6.4 6.4v6.4l12.8 19.2c19.2 25.6 19.2 70.4 0 96l-12.8 19.2v6.4s0 6.4 6.4 6.4l19.2 12.8c32 12.8 51.2 51.2 44.8 83.2v25.6h32c32 0 70.4 19.2 83.2 44.8l12.8 19.2c0 6.4 6.4 6.4 6.4 6.4h6.4l19.2-12.8c19.2-6.4 32-12.8 51.2-12.8z" fill="" p-id="2983"></path><path d="M422.4 928c-6.4 0-12.8 0-19.2-6.4l-64-44.8-76.8 19.2c-6.4 0-19.2 0-25.6-6.4-6.4-6.4-12.8-19.2-6.4-25.6l44.8-249.6c0-6.4 6.4-12.8 12.8-19.2 6.4-6.4 19.2-6.4 25.6 0h25.6c32 0 70.4 19.2 83.2 44.8l12.8 19.2c0 6.4 6.4 6.4 12.8 6.4 6.4-6.4 19.2-6.4 32 0 6.4 6.4 12.8 19.2 12.8 25.6l-38.4 204.8c0 6.4-6.4 19.2-19.2 19.2-6.4 12.8-12.8 12.8-12.8 12.8z m-76.8-108.8c6.4 0 12.8 0 19.2 6.4l38.4 25.6 25.6-128c-19.2-6.4-32-19.2-38.4-32l-12.8-19.2c-6.4-6.4-19.2-19.2-32-19.2h-19.2l-32 179.2 44.8-12.8h6.4z" fill="" p-id="2984"></path><path d="M544 953.6h-12.8l-19.2-19.2-44.8-256c0-12.8 6.4-25.6 19.2-32 25.6-6.4 51.2 0 70.4 12.8l19.2 12.8h6.4s6.4 0 6.4-6.4l12.8-19.2c12.8-25.6 51.2-44.8 83.2-44.8h19.2c6.4 0 6.4-6.4 6.4-6.4 6.4-12.8 19.2-19.2 25.6-19.2 12.8 0 25.6 12.8 25.6 19.2l51.2 275.2v6.4c0 12.8-12.8 25.6-25.6 25.6h-6.4l-121.6-32-102.4 76.8c0 6.4-6.4 6.4-12.8 6.4z m-12.8-249.6l32 179.2 76.8-57.6c6.4-6.4 12.8-6.4 25.6-6.4l89.6 25.6-32-192c-6.4 0-6.4 6.4-12.8 6.4h-25.6c-12.8 0-25.6 6.4-32 12.8l-12.8 19.2c-12.8 19.2-32 32-57.6 32-12.8 0-25.6-6.4-32-12.8l-19.2-6.4z" fill="" p-id="2985"></path></svg>