<?xml version="1.0" standalone="no"?><!DOCTYPE svg PUBLIC "-//W3C//DTD SVG 1.1//EN" "http://www.w3.org/Graphics/SVG/1.1/DTD/svg11.dtd"><svg t="1566655089306" class="icon" viewBox="0 0 1120 1024" version="1.1" xmlns="http://www.w3.org/2000/svg" p-id="2732" xmlns:xlink="http://www.w3.org/1999/xlink" width="218.75" height="200"><defs><style type="text/css"></style></defs><path d="M1031.789402 80.055795C979.337846 27.683009 905.531077 0 818.324786 0 723.022769 0 640.682667 40.662427 580.19665 117.576205a370.477949 370.477949 0 0 0-19.04465 26.588992 351.695863 351.695863 0 0 0-18.335726-26.238906C483.398017 40.784957 400.112684 0 301.948718 0c-87.206291 0-161.01306 27.683009-213.464615 80.055795C29.766017 138.703863 0 224.404786 0 334.769231c0 107.126154 62.525265 235.651282 185.83412 382.022017C279.875829 828.389744 394.756376 931.664957 470.926222 991.091966A144.742838 144.742838 0 0 0 560.136752 1021.838222c31.472684 0 62.95412-10.24 89.21053-30.737504 25.346188-19.779829 77.325128-61.93012 140.69935-122.092308a43.926974 43.926974 0 0 0 1.671659-61.991384 43.699419 43.699419 0 0 0-61.860103-1.680411c-60.696068 57.615316-110.189402 97.761368-134.275282 116.552206a57.519043 57.519043 0 0 1-70.892308 0c-72.677744-56.696342-182.289504-155.227897-271.981401-261.688889C144.637812 531.937368 87.521368 419.402393 87.521368 334.769231c0-204.18735 116.604718-247.055316 214.42735-247.055316 168.251077 0 213.945983 161.949538 215.888957 169.108786 0.052513 0.210051 0.140034 0.41135 0.192547 0.621402 0.288821 1.006496 0.603897 1.986735 0.953983 2.966974a47.025231 47.025231 0 0 0 1.645402 4.008479c0.192547 0.385094 0.36759 0.787692 0.568889 1.155282 0.472615 0.936479 0.980239 1.837949 1.522872 2.730666l0.551384 0.910222c0.621402 0.997744 1.304068 1.942974 2.012992 2.888206l0.323829 0.437606a43.436855 43.436855 0 0 0 22.177914 15.211214 43.673162 43.673162 0 0 0 51.777641-23.193162l0.472616-1.006496c0.350085-0.805197 0.691419-1.627897 0.997743-2.468103 0.262564-0.673915 0.49012-1.356581 0.717675-2.056752 0.105026-0.315077 0.227556-0.61265 0.323829-0.927726 0.140034-0.446359 13.84588-45.143521 48.565607-88.379077 43.690667-54.412034 100.10694-82.007521 167.682188-82.007521 97.822632 0 214.42735 42.867966 214.427351 247.055316 0 81.79747-53.300513 187.715829-158.413675 314.814359a43.918222 43.918222 0 0 0 5.77641 61.737572 43.49812 43.49812 0 0 0 27.89306 10.091214 43.62065 43.62065 0 0 0 33.721983-15.867624C1061.870496 560.276786 1120.273504 438.989675 1120.273504 334.760479c0-110.364444-29.766017-196.047863-88.484102-254.704684z" fill="#4A90E2" p-id="2733"></path></svg>