<?xml version="1.0" standalone="no"?><!DOCTYPE svg PUBLIC "-//W3C//DTD SVG 1.1//EN" "http://www.w3.org/Graphics/SVG/1.1/DTD/svg11.dtd"><svg t="1566655085788" class="icon" viewBox="0 0 1024 1024" version="1.1" xmlns="http://www.w3.org/2000/svg" p-id="2608" xmlns:xlink="http://www.w3.org/1999/xlink" width="200" height="200"><defs><style type="text/css"></style></defs><path d="M738.688 208a8.896 8.896 0 0 0-8.832-8.832H305.024a8.896 8.896 0 0 0-8.832 8.832v53.12c0 4.864 3.968 8.832 8.832 8.832h424.832a8.896 8.896 0 0 0 8.832-8.832v-53.12z m-8.832 150.464H305.024a8.896 8.896 0 0 0-8.832 8.832v53.12c0 4.864 3.968 8.832 8.832 8.832h424.832a8.896 8.896 0 0 0 8.832-8.832v-53.12a8.896 8.896 0 0 0-8.832-8.832z m-221.248 159.36H305.024a8.896 8.896 0 0 0-8.832 8.832v53.12c0 4.8 3.968 8.832 8.832 8.832h203.52a8.896 8.896 0 0 0 8.896-8.896v-53.12a8.896 8.896 0 0 0-8.832-8.832z m-53.12 340.736H207.68V79.68h619.52V460.16c0 4.864 4.032 8.896 8.896 8.896h61.952a8.896 8.896 0 0 0 8.832-8.896V35.392A35.392 35.392 0 0 0 871.488 0H163.392A35.392 35.392 0 0 0 128 35.392v867.392c0 19.584 15.808 35.392 35.392 35.392h292.096a8.896 8.896 0 0 0 8.832-8.832v-61.952a8.896 8.896 0 0 0-8.832-8.832z m394.752-82.304a159.36 159.36 0 1 0-214.208 0 217.408 217.408 0 0 0-109.76 179.328 8.896 8.896 0 0 0 8.896 9.152h53.184a8.96 8.96 0 0 0 8.832-8.384 146.304 146.304 0 0 1 145.92-137.6c77.824 0 141.632 61.056 145.92 137.6a8.896 8.896 0 0 0 8.96 8.384h53.12c5.12 0 9.088-4.16 8.896-9.152a217.024 217.024 0 0 0-109.76-179.328z m-107.072-206.464a88.512 88.512 0 1 1 0 176.96 88.512 88.512 0 0 1 0-176.96z" p-id="2609"></path></svg>