<?xml version="1.0" standalone="no"?><!DOCTYPE svg PUBLIC "-//W3C//DTD SVG 1.1//EN" "http://www.w3.org/Graphics/SVG/1.1/DTD/svg11.dtd"><svg t="1566655053678" class="icon" viewBox="0 0 1024 1024" version="1.1" xmlns="http://www.w3.org/2000/svg" p-id="1987" xmlns:xlink="http://www.w3.org/1999/xlink" width="200" height="200"><defs><style type="text/css"></style></defs><path d="M829.44 836.8V128c0-17.6-14.368-32-32-32H256c-17.6 0-32 14.4-32 32v708.8c0 6.4 1.952 12.48 5.44 17.92 4.8 7.04 11.84 11.84 20.192 13.44 8.608 1.6 16.928 0 24-4.8l199.648-133.12a96.32 96.32 0 0 1 106.56 0l199.68 133.12a32.064 32.064 0 0 0 49.92-26.56zM797.44 32c52.8 0 96 43.2 96 96v708.8c0 53.12-43.2 96-96 96-19.2 0-37.44-5.44-53.44-16l-199.648-133.12a31.36 31.36 0 0 0-35.552 0l-199.68 133.12a94.688 94.688 0 0 1-72 14.08c-24.96-4.8-46.72-19.52-61.12-40.64-10.56-16-16-34.24-16-53.44V128c0-52.8 43.232-96 96-96h541.44z m-159.36 334.72c17.92 0 32 14.4 32 32s-14.08 32-32 32h-79.36v79.36c0 17.92-14.4 32-32 32s-32-14.08-32-32v-79.36h-79.68c-17.6 0-32-14.4-32-32s14.4-32 32-32h79.68V287.04c0-17.6 14.4-32 32-32s32 14.4 32 32v79.68h79.36z" p-id="1988"></path></svg>