<?xml version="1.0" standalone="no"?><!DOCTYPE svg PUBLIC "-//W3C//DTD SVG 1.1//EN" "http://www.w3.org/Graphics/SVG/1.1/DTD/svg11.dtd"><svg t="1566655103072" class="icon" viewBox="0 0 1026 1024" version="1.1" xmlns="http://www.w3.org/2000/svg" p-id="3238" xmlns:xlink="http://www.w3.org/1999/xlink" width="200.390625" height="200"><defs><style type="text/css"></style></defs><path d="M181.826783 276.257391l143.226435 0 0 57.700174-143.226435 0 0-57.700174Z" p-id="3239"></path><path d="M410.601739 276.257391l143.226435 0 0 57.700174-143.226435 0 0-57.700174Z" p-id="3240"></path><path d="M711.991652 415.521391l57.700174 0 0 95.565913-57.700174 0 0-95.565913Z" p-id="3241"></path><path d="M817.41913 415.521391l57.700174 0 0 95.565913-57.700174 0 0-95.565913Z" p-id="3242"></path><path d="M817.41913 551.624348l57.700174 0 0 97.658435-57.700174 0 0-97.658435Z" p-id="3243"></path><path d="M711.991652 551.624348l57.700174 0 0 97.658435-57.700174 0 0-97.658435Z" p-id="3244"></path><path d="M410.601739 415.521391l143.226435 0 0 57.700174-143.226435 0 0-57.700174Z" p-id="3245"></path><path d="M410.601739 552.781913l143.226435 0 0 57.700174-143.226435 0 0-57.700174Z" p-id="3246"></path><path d="M181.826783 552.781913l143.226435 0 0 57.700174-143.226435 0 0-57.700174Z" p-id="3247"></path><path d="M181.826783 688.061217l143.226435 0 0 57.700174-143.226435 0 0-57.700174Z" p-id="3248"></path><path d="M410.601739 688.061217l143.226435 0 0 57.700174-143.226435 0 0-57.700174Z" p-id="3249"></path><path d="M181.826783 415.521391l143.226435 0 0 57.700174-143.226435 0 0-57.700174Z" p-id="3250"></path><path d="M994.148174 895.643826l-25.399652 0L968.748522 313.789217c0-44.343652-35.305739-80.428522-78.736696-80.428522l-195.072-0.022261c-4.162783 0-8.414609 0.044522-12.644174 0.178087L682.295652 144.985043c0-43.408696-35.305739-78.736696-78.736696-78.736696L143.003826 66.248348c-43.408696 0-78.714435 35.328-78.714435 78.736696L64.289391 895.777391l-33.302261 0c-17.118609 0-30.98713 13.890783-30.98713 30.98713 0 17.118609 13.868522 30.98713 30.98713 30.98713l33.302261 0 0 0 618.028522 0L682.317913 957.662609l311.830261-0.044522c17.118609 0 30.98713-13.890783 30.98713-30.98713C1025.135304 909.490087 1011.244522 895.643826 994.148174 895.643826zM682.406957 295.446261c3.962435-0.111304 8.748522-0.133565 12.354783-0.133565l195.272348 0.022261c9.082435 0 16.762435 8.45913 16.762435 18.454261l0 581.854609L682.317913 895.643826 682.406957 295.446261zM126.241391 144.985043c0-9.082435 7.68-16.762435 16.740174-16.762435l460.577391 0c9.082435 0 16.762435 7.68 16.762435 16.762435l0 144.940522 0 605.785043L126.241391 895.777391 126.241391 144.985043z" p-id="3251"></path></svg>